<svg xmlns="http://www.w3.org/2000/svg" viewBox="0 0 280 280" fill="none" shape-rendering="auto"><metadata xmlns:rdf="http://www.w3.org/1999/02/22-rdf-syntax-ns#" xmlns:xsi="http://www.w3.org/2001/XMLSchema-instance" xmlns:dc="http://purl.org/dc/elements/1.1/" xmlns:dcterms="http://purl.org/dc/terms/"><rdf:RDF><rdf:Description><dc:title>Avataaars</dc:title><dc:creator>Pablo Stanley</dc:creator><dc:source xsi:type="dcterms:URI">https://avataaars.com/</dc:source><dcterms:license xsi:type="dcterms:URI">https://avataaars.com/</dcterms:license><dc:rights>Remix of „Avataaars” (https://avataaars.com/) by „Pablo Stanley”, licensed under „Free for personal and commercial use” (https://avataaars.com/)</dc:rights></rdf:Description></rdf:RDF></metadata><mask id="viewboxMask"><rect width="280" height="280" rx="0" ry="0" x="0" y="0" fill="#fff" /></mask><g mask="url(#viewboxMask)"><g transform="translate(8)"><path d="M132 36a56 56 0 0 0-56 56v6.17A12 12 0 0 0 66 110v14a12 12 0 0 0 10.3 11.88 56.04 56.04 0 0 0 31.7 44.73v18.4h-4a72 72 0 0 0-72 72v9h200v-9a72 72 0 0 0-72-72h-4v-18.39a56.04 56.04 0 0 0 31.7-44.73A12 12 0 0 0 198 124v-14a12 12 0 0 0-10-11.83V92a56 56 0 0 0-56-56Z" fill="#f8d25c"/><path d="M108 180.61v8a55.79 55.79 0 0 0 24 5.39c8.59 0 16.73-1.93 24-5.39v-8a55.79 55.79 0 0 1-24 5.39 55.79 55.79 0 0 1-24-5.39Z" fill="#000" fill-opacity=".1"/><g transform="translate(0 170)"><path d="M92.68 29.94A72.02 72.02 0 0 0 32 101.05V110h200v-8.95a72.02 72.02 0 0 0-60.68-71.11 23.87 23.87 0 0 1-7.56 13.6l-29.08 26.23a4 4 0 0 1-5.36 0l-29.08-26.23a23.87 23.87 0 0 1-7.56-13.6Z" fill="#a7ffc4"/></g><g transform="translate(78 134)"><path fill-rule="evenodd" clip-rule="evenodd" d="M35.12 29.87a19 19 0 0 1 37.77.09c.08.77-.77 2.04-1.85 2.04H37.1C36 32 35 30.82 35.12 29.87Z" fill="#000" fill-opacity=".7"/><path d="M69.59 32H38.4a11 11 0 0 1 15.6-6.8A11 11 0 0 1 69.59 32Z" fill="#FF4F6D"/><path d="M66.57 17.75A5 5 0 0 1 65 18H44c-.8 0-1.57-.2-2.24-.53A18.92 18.92 0 0 1 54 13c4.82 0 9.22 1.8 12.57 4.75Z" fill="#fff"/></g><g transform="translate(104 122)"><path fill-rule="evenodd" clip-rule="evenodd" d="M16 8c0 4.42 5.37 8 12 8s12-3.58 12-8" fill="#000" fill-opacity=".16"/></g><g transform="translate(76 90)"><g fill="#000" fill-opacity=".6"><path d="M36 22a6 6 0 1 1-12 0 6 6 0 0 1 12 0Z"/><path fill-rule="evenodd" clip-rule="evenodd" d="M70.6 24.96c1.59-3.92 5.55-6.86 10.37-7.2 4.8-.33 9.12 2 11.24 5.64.63 1.09-.1 2.06-.93 1.43-2.6-1.93-6.15-3-10-2.73A15.13 15.13 0 0 0 71.95 26c-.84.78-1.81.1-1.35-1.04Z"/></g></g><g transform="translate(76 82)"><path d="M44.1 17.12ZM19.27 5.01a7.16 7.16 0 0 0-6.42 2.43c-.6.73-1.56 2.48-1.51 3.42.02.35.22.37 1.12.59 1.65.39 4.5-1.12 6.36-.98 2.58.2 5.04 1.4 7.28 2.68 3.84 2.2 8.35 6.84 13.1 6.6.35-.02 5.41-1.74 4.4-2.72-.31-.49-3.03-1.13-3.5-1.36-2.17-1.09-4.37-2.45-6.44-3.72C29.14 9.18 24.72 5.6 19.28 5ZM68.03 17.12ZM92.91 5.01c2.36-.27 4.85.5 6.42 2.43.6.73 1.56 2.48 1.51 3.42-.02.35-.22.37-1.12.59-1.65.39-4.5-1.12-6.36-.98-2.58.2-5.04 1.4-7.28 2.68-3.84 2.2-8.35 6.84-13.1 6.6-.35-.02-5.41-1.74-4.4-2.72.31-.49 3.03-1.13 3.5-1.36 2.17-1.09 4.36-2.45 6.44-3.72C83.05 9.18 87.46 5.6 92.91 5Z" fill-rule="evenodd" clip-rule="evenodd" fill="#000" fill-opacity=".6"/></g><g transform="translate(-1)"><path d="M70 97c0 4 .92 5.07 6 5 3.25-.05 3.44-6 3.65-12.59.14-4.37.29-9.03 1.35-12.41.62-4.43-1.82-3.17-3-1-3.96 4.78-8 15.34-8 21ZM196 97c0 4-.92 5.07-6 5-3.25-.05-3.44-6-3.65-12.59-.14-4.37-.29-9.03-1.35-12.41-.62-4.43 1.82-3.17 3-1 3.96 4.78 8 15.34 8 21Z" fill="#724133"/></g><g transform="translate(49 72)"></g><g transform="translate(62 42)"></g></g></g></svg>