<svg xmlns="http://www.w3.org/2000/svg" viewBox="0 0 280 280" fill="none" shape-rendering="auto"><metadata xmlns:rdf="http://www.w3.org/1999/02/22-rdf-syntax-ns#" xmlns:xsi="http://www.w3.org/2001/XMLSchema-instance" xmlns:dc="http://purl.org/dc/elements/1.1/" xmlns:dcterms="http://purl.org/dc/terms/"><rdf:RDF><rdf:Description><dc:title>Avataaars</dc:title><dc:creator>Pablo Stanley</dc:creator><dc:source xsi:type="dcterms:URI">https://avataaars.com/</dc:source><dcterms:license xsi:type="dcterms:URI">https://avataaars.com/</dcterms:license><dc:rights>Remix of „Avataaars” (https://avataaars.com/) by „Pablo Stanley”, licensed under „Free for personal and commercial use” (https://avataaars.com/)</dc:rights></rdf:Description></rdf:RDF></metadata><mask id="viewboxMask"><rect width="280" height="280" rx="0" ry="0" x="0" y="0" fill="#fff" /></mask><g mask="url(#viewboxMask)"><g transform="translate(8)"><path d="M132 36a56 56 0 0 0-56 56v6.17A12 12 0 0 0 66 110v14a12 12 0 0 0 10.3 11.88 56.04 56.04 0 0 0 31.7 44.73v18.4h-4a72 72 0 0 0-72 72v9h200v-9a72 72 0 0 0-72-72h-4v-18.39a56.04 56.04 0 0 0 31.7-44.73A12 12 0 0 0 198 124v-14a12 12 0 0 0-10-11.83V92a56 56 0 0 0-56-56Z" fill="#edb98a"/><path d="M108 180.61v8a55.79 55.79 0 0 0 24 5.39c8.59 0 16.73-1.93 24-5.39v-8a55.79 55.79 0 0 1-24 5.39 55.79 55.79 0 0 1-24-5.39Z" fill="#000" fill-opacity=".1"/><g transform="translate(0 170)"><path d="M132.5 54C151 54 166 44.37 166 32.5c0-1.1-.13-2.18-.38-3.23A72 72 0 0 1 232 101.05V110H32v-8.95A72 72 0 0 1 99.4 29.2a14.1 14.1 0 0 0-.4 3.3C99 44.37 114 54 132.5 54Z" fill="#ffffb1"/><g transform="translate(77 58)"><g fill-rule="evenodd" clip-rule="evenodd" fill="#fff"><path d="M65.93 25.4c-4.08 1.37-8.55 3.31-10.9 7.06-1.85 2.95-1.97-.45-4.55.6-2.5 1.02-1.82 5.22-2.73 7.3-.71-1.2-1.05-2.52-1.94-3.6a6.6 6.6 0 0 0 1.81-1.73c.16-.32-4.79.35-5.07.43-1.41.4-2.74.77-4.09 1.43a78.83 78.83 0 0 0 1.96-2.99c.21-.68.58-.68 1.11 0 .75.03 1.18.35 1.96.17 2.92-.66 3.85-6.22.25-5.98a93.38 93.38 0 0 0 4.26-8.8c.5 4.28 6.08 2.8 7.72.52 2.14-3-.6-8.66-4.49-8.11.58-1.38 1.17-2.77 1.65-4.18 1.1 1.6 3 2.39 4.54 3.45a18.2 18.2 0 0 1 4.16 4.01c2.4 3.14 3.8 7 6.22 10.05-.64.04-1.26.16-1.87.36Zm9-4.4c-.62-5.75-5.14-11.6-9.43-15.17-2.55-2.13-10.24-7.39-13.3-3.34 2.46 1.07 5.2 1.33 7.64 2.49 3.32 1.57 5.92 4.16 8.17 7.05 3.14 4.05 7.97 12.28.48 14.39.5-.34.8-.71 1.21-1.31-1-.23-.6-1.88-.95-2.95-.41-1.25-1.21-2.47-1.89-3.59a56.62 56.62 0 0 0-3.5-5.17A23.46 23.46 0 0 0 57.4 8c-.9-.58-1.77-1.1-2.81-1.4-1.35-.4-.91.08-1.28-1.15-.23-.78-.02-1.77-.25-2.6-1.97 1.66-2.6 4.06-3.5 6.39-1.01 2.68-2.12 5.33-3.2 8-2.63 6.53-6.02 12.39-9.88 18.24-.67 1.02-2.17 2.95-1.1 4.17.97 1.1 2.34.3 3.4-.13 1.43-.6 3.38-2.17 4.93-1.35 2 1.05 1.05 4.98 4.21 4.83 3.12-.16 2.53-5.28 3.53-7.32 2.31 1.68 4.18.64 5.58-1.61 1.63-2.61 3.77-3.66 6.51-4.94 1.12-.52 3.04-1.94 4.2-2.12.97-.13 1.9.9 3.19.85 3.1-.11 4.39-4.25 4.02-6.85Z"/><path d="M53.54 23.83c-2.43-.44-5.8-.07-6.03 3.16-.14 1.97 1.4 3.85 3.08 4.66 5.12 2.5 9.1-6.69 2.95-7.82ZM63.34 20.16c-.65-.7-1.7-1.24-2.68-1 .31-.2.57-.6.87-.83-3.16-2.29-5.14 3.47-3.35 5.74 2.72 3.44 8.04-.76 5.16-3.91Z"/></g></g></g><g transform="translate(78 134)"><path d="M40 16c0 5.37 6.16 9 14 9s14-3.63 14-9c0-1.1-.95-2-2-2-1.3 0-1.87.9-2 2-1.24 2.94-4.32 4.72-10 5-5.68-.28-8.76-2.06-10-5-.13-1.1-.7-2-2-2-1.05 0-2 .9-2 2Z" fill="#000" fill-opacity=".6"/></g><g transform="translate(104 122)"><path fill-rule="evenodd" clip-rule="evenodd" d="M16 8c0 4.42 5.37 8 12 8s12-3.58 12-8" fill="#000" fill-opacity=".16"/></g><g transform="translate(76 90)"><path d="M44 22a14 14 0 1 1-28 0 14 14 0 0 1 28 0ZM96 22a14 14 0 1 1-28 0 14 14 0 0 1 28 0Z" fill="#fff"/><path d="M36 14a6 6 0 1 1-12 0 6 6 0 0 1 12 0ZM88 14a6 6 0 1 1-12 0 6 6 0 0 1 12 0Z" fill="#000" fill-opacity=".7"/></g><g transform="translate(76 82)"><path d="m31.23 20.42-.9.4c-5.25 2.09-13.2 1.21-18.05-1.12-.57-.27-.18-1.15.4-1.1 14.92 1.14 24.96-8.15 28.37-14.45.1-.18.41-.2.49-.03 2.3 5.32-4.45 13.98-10.3 16.3ZM80.77 20.42l.9.4c5.25 2.09 13.2 1.21 18.05-1.12.57-.27.18-1.15-.4-1.1-14.92 1.14-24.96-8.15-28.37-14.45-.1-.18-.41-.2-.49-.03-2.3 5.32 4.45 13.98 10.3 16.3Z" fill-rule="evenodd" clip-rule="evenodd" fill="#000" fill-opacity=".6"/></g><g transform="translate(-1)"><path d="M133 18a74 74 0 0 0-74 74v96c0 8.56 1.45 16.78 4.12 24.42A71.67 71.67 0 0 1 105 199h4v-18.39a56.03 56.03 0 0 1-31.8-45.74A12 12 0 0 1 67 123v-13a12 12 0 0 1 .46-3.3c17.13-6.02 33.75-21.94 43.59-44.04.4-.92.8-1.84 1.18-2.76 4.58 12.23 13.21 21.11 25.89 26.63a87.36 87.36 0 0 1-12.45-20.78c7.98 8.5 18.35 16.74 30.48 23.75 14.33 8.27 28.91 13.56 41.87 15.75.63 1.45.98 3.06.98 4.75v13a12 12 0 0 1-10.2 11.87A56.03 56.03 0 0 1 157 180.6V199h4a71.67 71.67 0 0 1 41.88 13.42A73.9 73.9 0 0 0 207 188V92a74 74 0 0 0-74-74Z" fill="#2c1b18"/><path d="M111.05 62.66C99.59 88.39 78.95 105.75 59 108.84v4c19.95-3.1 40.59-20.45 52.05-46.18.4-.92.8-1.84 1.18-2.76 4.58 12.23 13.21 21.11 25.89 26.63a78.16 78.16 0 0 1-4.62-6.26c-10.18-5.56-17.27-13.69-21.27-24.37a98.8 98.8 0 0 1-1.18 2.76ZM129.5 73.64a137.34 137.34 0 0 0 26.65 19.86c17.75 10.25 35.9 15.91 50.85 16.78v-4c-14.95-.87-33.1-6.54-50.85-16.78-12.13-7-22.5-15.24-30.48-23.75a98.3 98.3 0 0 0 3.83 7.89Z" fill="#000" fill-opacity=".16"/></g><g transform="translate(49 72)"></g><g transform="translate(62 42)"><path fill-rule="evenodd" clip-rule="evenodd" d="M39.25 52c-21.13 0-28.63 5.17-29.32 5.86A2.93 2.93 0 0 0 7 60.79v2.92a2.93 2.93 0 0 0 2.93 2.93s5.87 0 5.87 2.93c0 .2 0 .34.03.45-.03.82-.04 1.65-.04 2.48C15.78 85.34 24.07 93 37.96 93h2.75c14.68 0 24.93-8.43 24.93-20.5 0-1.44-.04-2.88-.16-4.28l1.45-.73c.57-.28 1.2-.5 1.87-.64 1.85-.39 3.93-.23 5.95.28.73.18 1.25.36 1.5.46l1.25.5a50.58 50.58 0 0 0-.16 4.4c0 12.84 8.29 20.5 22.17 20.5h2.75c14.68 0 24.93-8.43 24.93-20.5 0-.83 0-1.66-.04-2.48.02-.11.03-.26.03-.45 0-2.93 5.87-2.93 5.87-2.93 1.62 0 2.93-1.3 2.93-2.93V60.8a2.93 2.93 0 0 0-2.93-2.93c-.69-.69-8.2-5.86-29.32-5.86h-2.93c-1.83 0-3.52.07-5.08.21-9.38.56-14.46 2.19-19.63 4.76-.54.2-2.38.79-4.53.88a16.56 16.56 0 0 1-4.77-.92l-.42-.2v-.01c-4.9-2.45-8.36-4.18-20.55-4.61-1.15-.07-2.37-.1-3.66-.1h-2.93Zm-1.12 5.86h1.12c2.44 0 4.59.03 6.48.1 14.05.84 14.05 6.95 14.05 14.54 0 8.62-7.84 14.64-19.06 14.64h-2.75c-13.5 0-16.32-7.96-16.32-14.64 0-8 0-14.37 16.48-14.64Zm26.11 4.36.1.03-.07.03-.03-.06Zm14.52 0-.07.03.04.02c0-.02 0-.03.02-.05Zm16.7-4.12a125.22 125.22 0 0 1 9.4-.24c16.49.27 16.49 6.63 16.49 14.64 0 8.62-7.84 14.64-19.07 14.64h-2.75c-13.48 0-16.31-7.96-16.31-14.64 0-7.25 0-13.15 12.24-14.4Z" fill="#000" fill-opacity=".1"/><path d="M40.72 88.07c13.74 0 22-7.87 22-17.57s-1.3-17.57-20.54-17.57h-2.93c-19.25 0-20.53 7.86-20.53 17.57 0 9.7 5.5 17.57 19.25 17.57h2.75Z" fill="#000" fill-opacity=".7"/><path d="M40.72 88.07c13.74 0 22-7.87 22-17.57s-1.3-17.57-20.54-17.57h-2.93c-19.25 0-20.53 7.86-20.53 17.57 0 9.7 5.5 17.57 19.25 17.57h2.75Z" fill="url(#accessoriesWayfarers-a)" style="mix-blend-mode:screen"/><path d="M102.28 88.07c13.75 0 22-7.87 22-17.57S123 52.93 103.75 52.93h-2.93c-19.25 0-20.53 7.86-20.53 17.57 0 9.7 5.5 17.57 19.24 17.57h2.75Z" fill="#000" fill-opacity=".7"/><path d="M102.28 88.07c13.75 0 22-7.87 22-17.57S123 52.93 103.75 52.93h-2.93c-19.25 0-20.53 7.86-20.53 17.57 0 9.7 5.5 17.57 19.24 17.57h2.75Z" fill="url(#accessoriesWayfarers-b)" style="mix-blend-mode:screen"/><path fill-rule="evenodd" clip-rule="evenodd" d="M39.25 50c-21.13 0-28.63 5.17-29.32 5.86A2.93 2.93 0 0 0 7 58.79v2.92a2.93 2.93 0 0 0 2.93 2.93s5.87 0 5.87 2.93c0 .2 0 .34.03.45-.03.82-.04 1.65-.04 2.48C15.78 83.34 24.07 91 37.96 91h2.75c14.68 0 24.93-8.43 24.93-20.5 0-1.44-.04-2.88-.16-4.28l1.45-.73c.57-.28 1.2-.5 1.87-.64 1.85-.39 3.93-.23 5.95.28.73.18 1.25.36 1.5.46l1.25.5a50.58 50.58 0 0 0-.16 4.4c0 12.84 8.29 20.5 22.17 20.5h2.75c14.68 0 24.93-8.43 24.93-20.5 0-.83 0-1.66-.04-2.48.02-.11.03-.26.03-.45 0-2.93 5.87-2.93 5.87-2.93 1.62 0 2.93-1.3 2.93-2.93V58.8a2.93 2.93 0 0 0-2.93-2.93c-.69-.69-8.2-5.86-29.32-5.86h-2.93c-1.83 0-3.52.07-5.08.21-9.38.56-14.46 2.19-19.63 4.76-.54.2-2.38.79-4.53.88a16.56 16.56 0 0 1-4.77-.92l-.42-.2v-.01c-4.9-2.45-8.36-4.18-20.55-4.61-1.15-.07-2.37-.1-3.66-.1h-2.93Zm-1.12 5.86h1.12c2.44 0 4.59.03 6.48.1 14.05.84 14.05 6.95 14.05 14.54 0 8.62-7.84 14.64-19.06 14.64h-2.75c-13.5 0-16.32-7.96-16.32-14.64 0-8 0-14.37 16.48-14.64Zm26.11 4.36.1.03-.07.03-.03-.06Zm14.52 0-.07.03.04.02c0-.02 0-.03.02-.05Zm16.7-4.12a125.22 125.22 0 0 1 9.4-.24c16.49.27 16.49 6.63 16.49 14.64 0 8.62-7.84 14.64-19.07 14.64h-2.75c-13.48 0-16.31-7.96-16.31-14.64 0-7.25 0-13.15 12.24-14.4Z" fill="#ff5c5c"/><defs><linearGradient id="accessoriesWayfarers-a" x1="80.29" y1="52.93" x2="80.29" y2="88.07" gradientUnits="userSpaceOnUse"><stop stop-color="#fff" stop-opacity=".5"/><stop offset=".71" stop-opacity=".5"/></linearGradient><linearGradient id="accessoriesWayfarers-b" x1="80.29" y1="52.93" x2="80.29" y2="88.07" gradientUnits="userSpaceOnUse"><stop stop-color="#fff" stop-opacity=".5"/><stop offset=".71" stop-opacity=".5"/></linearGradient></defs></g></g></g></svg>