<svg xmlns="http://www.w3.org/2000/svg" viewBox="0 0 280 280" fill="none" shape-rendering="auto"><metadata xmlns:rdf="http://www.w3.org/1999/02/22-rdf-syntax-ns#" xmlns:xsi="http://www.w3.org/2001/XMLSchema-instance" xmlns:dc="http://purl.org/dc/elements/1.1/" xmlns:dcterms="http://purl.org/dc/terms/"><rdf:RDF><rdf:Description><dc:title>Avataaars</dc:title><dc:creator>Pablo Stanley</dc:creator><dc:source xsi:type="dcterms:URI">https://avataaars.com/</dc:source><dcterms:license xsi:type="dcterms:URI">https://avataaars.com/</dcterms:license><dc:rights>Remix of „Avataaars” (https://avataaars.com/) by „Pablo Stanley”, licensed under „Free for personal and commercial use” (https://avataaars.com/)</dc:rights></rdf:Description></rdf:RDF></metadata><mask id="viewboxMask"><rect width="280" height="280" rx="0" ry="0" x="0" y="0" fill="#fff" /></mask><g mask="url(#viewboxMask)"><g transform="translate(8)"><path d="M132 36a56 56 0 0 0-56 56v6.17A12 12 0 0 0 66 110v14a12 12 0 0 0 10.3 11.88 56.04 56.04 0 0 0 31.7 44.73v18.4h-4a72 72 0 0 0-72 72v9h200v-9a72 72 0 0 0-72-72h-4v-18.39a56.04 56.04 0 0 0 31.7-44.73A12 12 0 0 0 198 124v-14a12 12 0 0 0-10-11.83V92a56 56 0 0 0-56-56Z" fill="#614335"/><path d="M108 180.61v8a55.79 55.79 0 0 0 24 5.39c8.59 0 16.73-1.93 24-5.39v-8a55.79 55.79 0 0 1-24 5.39 55.79 55.79 0 0 1-24-5.39Z" fill="#000" fill-opacity=".1"/><g transform="translate(0 170)"><path d="M132.5 54C151 54 166 44.37 166 32.5c0-1.1-.13-2.18-.38-3.23A72 72 0 0 1 232 101.05V110H32v-8.95A72 72 0 0 1 99.4 29.2a14.1 14.1 0 0 0-.4 3.3C99 44.37 114 54 132.5 54Z" fill="#65c9ff"/><g transform="translate(77 58)"><g fill="#fff"><path d="M63.84 17c-.29.65-.56 1.3-.82 1.95L63 19l2-.16A18.7 18.7 0 0 0 63.84 17ZM53.22 17.3c.2-.06.42-.13.7-.3.15.42.26 3.29-1.35 2.98-.92-.18-.5-1.77-.25-2.1.34-.41.59-.49.9-.58Z"/><path fill-rule="evenodd" clip-rule="evenodd" d="M74.64 16.95C73.46 11.68 70.6 7.97 66.18 5c-3.35-2.25-6.5-2.23-10.46-1.75-3.25.4-6.35 1.3-9.2 2.94-5.04 2.89-7.92 6.74-8.6 12.54-.28 2.33-.33 5.1.5 7.32.48 1.3 1.34 2.34 2.25 3.36.15.17.5.47.86.79.6.52 1.26 1.1 1.28 1.29.12.86-2.2 3.4-2.89 4.15-.05.06-.1.1-.12.14-.23.25-.73.6-1.3.99-1.02.7-2.25 1.55-2.43 2.2-.83 2.93 5.83 1.89 7.45 1.63 1.55-.24 3.11-.54 4.62-.98.7-.2 1.4-.44 2.07-.72.56-.23 1.17-.7 1.78-1.16.7-.52 1.38-1.03 1.97-1.2a5.9 5.9 0 0 1 2.1.02c.6.07 1.2.14 1.7.09 1.5-.15 3.03-.45 4.5-.87a19 19 0 0 0 7.05-3.84c4.42-3.76 6.6-9.24 5.33-15Zm-5.13 6.99c-.62.16-1.36-1.24-1.08-1.72.77-1.34 2.16 1.42 1.08 1.72Zm-2.22-9.38c-.27 1.1.12 2.95.4 4.05.07.36.42.47.73.43.55-.08.45-.56.36-.97-.03-.16-.06-.3-.06-.4.04-.75.11-2.64-.17-3.32-.51-1.26-.97-1.02-1.27.21Zm-.65 8.33c-.58.34-.86-.29-1.05-.74-.06-.13-.1-.24-.16-.32a1.39 1.39 0 0 1-.29-.72c-.01-.18-.02-.22-.58-.39-1.77-.52-1.8.7-1.84 1.94-.02.72-.04 1.45-.4 1.84-1.78 1.91-.58-3.68-.37-4.68l.03-.1.12-.7c.34-1.96 1.02-5.86 2.67-3.11.49.8 2.7 6.49 1.87 6.98Zm-10.37-.95c.6.6 3.7.22 4.02-.34.68-1.18-1.85-.85-2.78-.73l-.29.03c.04-.75.13-1.5.21-2.27.12-1.05.24-2.1.23-3.15v-.17c.02-.62.06-1.94-.96-1.21-.34.25-.33 1.19-.33 1.82v.46c-.02.23-.08.6-.15 1.02-.24 1.51-.61 3.87.04 4.54Zm-.77-2.78c-1.43 5.73-6.98 2.64-4.5-1.71.46-.8.83-.98 1.41-1.26.22-.1.46-.22.75-.4.05-.03.06-.14.06-.28 0-.27.02-.65.43-.64 1.76.03 2.18 2.93 1.85 4.28Zm-7 .83c-.04.87-.14 3.3.97 3 .76-.21.54-9.98-.33-9.98-.92 0-.75 1.78-.6 3.33.1 1 .19 1.91-.04 2.17-.1.12-.51.1-.84.06a2.1 2.1 0 0 0-.4 0c-1.15.2-1.9.08-2.25-.61-.1-.2-.1-.7-.1-1.29-.01-1.33-.02-2.96-1.15-1.5l.03 2.2c.34.72.21 1.16-.38 1.32-.02.3.16.58.28.77.07.1.12.19.12.24.02.14 0 .38-.01.66-.08 1.26-.2 3.54.92 3.4.71-.08.49-2.28.37-3.42l-.05-.6.91.03c.86.04 1.73.08 2.56-.03V20Z"/></g></g></g><g transform="translate(78 134)"><path fill-rule="evenodd" clip-rule="evenodd" d="M34 38.86C35.14 24.88 38.24 13.01 54 13c15.76 0 18.92 11.94 20 26 .08 1.12-.83 2-1.96 2-6.69 0-9.37-2-18.05-2-8.7 0-13.24 2-17.9 2-1.15 0-2.2-.74-2.1-2.14Z" fill="#000" fill-opacity=".7"/><path d="M67.02 17.57c-.61.28-1.3.43-2.02.43H44c-.98 0-1.9-.28-2.67-.77C44.23 14.57 48.28 13 54 13c5.95 0 10.1 1.7 13.02 4.57Z" fill="#fff"/><path d="M69.8 40.92a44.2 44.2 0 0 1-5.54-.82c-2.73-.53-5.65-1.1-10.27-1.1-5.02 0-8.66.66-11.74 1.23-1.45.26-2.77.5-4.06.65A11 11 0 0 1 54 33.2a11 11 0 0 1 15.8 7.72Z" fill="#FF4F6D"/></g><g transform="translate(104 122)"><path fill-rule="evenodd" clip-rule="evenodd" d="M16 8c0 4.42 5.37 8 12 8s12-3.58 12-8" fill="#000" fill-opacity=".16"/></g><g transform="translate(76 90)"><path d="M35.96 10c-2.55 0-5.08 1.98-6.46 3.82-1.39-1.84-3.9-3.82-6.46-3.82-5.49 0-9.04 3.33-9.04 7.64 0 5.73 4.41 9.13 9.04 12.74 1.66 1.23 4.78 4.4 5.17 5.1.38.68 2.1.7 2.58 0 .48-.73 3.51-3.87 5.17-5.1 4.63-3.6 9.04-7 9.04-12.74 0-4.3-3.55-7.64-9.04-7.64ZM88.96 10c-2.55 0-5.08 1.98-6.46 3.82-1.39-1.84-3.9-3.82-6.46-3.82-5.49 0-9.04 3.33-9.04 7.64 0 5.73 4.41 9.13 9.04 12.74 1.65 1.23 4.78 4.4 5.17 5.1.38.68 2.1.7 2.58 0 .48-.73 3.51-3.87 5.17-5.1 4.63-3.6 9.04-7 9.04-12.74 0-4.3-3.55-7.64-9.04-7.64Z" fill="#FF5353" fill-opacity=".8"/></g><g transform="translate(76 82)"><path d="M38.66 11.1c-5 .35-9.92.08-14.92-.13-3.83-.16-7.72-.68-11.37 1.01-.7.32-4.53 2.28-4.44 3.35.07.85 3.93 2.2 4.63 2.44 3.67 1.29 7.18.9 10.95.66 4.64-.27 9.25-.07 13.87-.2 3.12-.1 7.92-.63 9.46-4.4.46-1.14.1-3.42-.36-4.66-.19-.5-.72-.69-1.13-.4a15.04 15.04 0 0 1-6.68 2.32ZM73.34 11.1c5 .35 9.92.08 14.92-.13 3.83-.16 7.72-.68 11.37 1.01.7.32 4.53 2.28 4.44 3.35-.07.85-3.93 2.2-4.63 2.44-3.67 1.29-7.18.9-10.95.66-4.63-.27-9.24-.07-13.86-.2-3.12-.1-7.92-.63-9.46-4.4-.46-1.14-.1-3.42.36-4.66.18-.5.72-.69 1.13-.4a15.04 15.04 0 0 0 6.68 2.32Z" fill-rule="evenodd" clip-rule="evenodd" fill="#000" fill-opacity=".6"/></g><g transform="translate(-1)"><path d="M50 90.5c0 4.55 1.7 8.64 4.85 10.77.9.61 2.47.93 4.15 1.07V182a8 8 0 0 0 8 8h42v-9.39a56.03 56.03 0 0 1-31.8-45.74A12 12 0 0 1 67 123v-13c0-3.5 1.5-6.63 3.87-8.83 11.54-2.61 24.1-7.53 36.47-14.67 12.13-7 22.5-15.24 30.48-23.75a87.36 87.36 0 0 1-12.45 20.78c12.68-5.52 21.3-14.4 25.9-26.63.37.92.76 1.84 1.17 2.76 10.26 23.03 27.88 39.36 45.77 44.74.5 2.11.79 4.08.79 5.6v13a12 12 0 0 1-10.2 11.87A56.03 56.03 0 0 1 157 180.6V190h18a32 32 0 0 0 32-32v-54.12c0-.07 0-.17-.03-.28-.07-5.64-.28-18.87-.6-21.37A74.01 74.01 0 0 0 132.99 18c-36.08 0-66.14 25.83-73 60-5.52 0-10 5.6-10 12.5Z" fill="#e8e1e1"/><path d="M152.44 59.66c11.94 26.81 33.86 44.53 54.56 46.5V92A74 74 0 0 0 60.32 78H60c-5.52 0-10 5.6-10 12.5 0 6.48 3.95 11.81 9 12.44v.15l.95-.1H60a8.1 8.1 0 0 0 1.9-.22C75.7 101 91.68 95.54 107.34 86.5c12.13-7 22.5-15.24 30.48-23.75a87.36 87.36 0 0 1-12.45 20.78c12.68-5.52 21.3-14.4 25.9-26.63.37.92.76 1.84 1.17 2.76Z" fill="#fff" fill-opacity=".08"/></g><g transform="translate(49 72)"><path d="M57.55 69.68a31.8 31.8 0 0 1 4.84-2.55C67.58 65.15 77.2 65.71 84 69.3c6.8-3.59 16.42-4.15 21.61-2.17 1.64.63 3.22 1.57 4.84 2.55 4.13 2.47 8.55 5.12 14.91 3.15.37-.12.73.22.62.58-1.37 4.5-9 7.6-11.6 7.7-6.2.24-11.75-2.26-17.13-4.69-4.44-2-8.77-3.96-13.25-4.26-4.48.3-8.8 2.26-13.25 4.26-5.38 2.43-10.92 4.93-17.13 4.69-2.6-.1-10.23-3.2-11.6-7.7-.11-.36.25-.7.62-.58 6.36 1.97 10.78-.68 14.9-3.15Z" fill="#b58143"/></g><g transform="translate(62 42)"></g></g></g></svg>