<svg xmlns="http://www.w3.org/2000/svg" viewBox="0 0 280 280" fill="none" shape-rendering="auto"><metadata xmlns:rdf="http://www.w3.org/1999/02/22-rdf-syntax-ns#" xmlns:xsi="http://www.w3.org/2001/XMLSchema-instance" xmlns:dc="http://purl.org/dc/elements/1.1/" xmlns:dcterms="http://purl.org/dc/terms/"><rdf:RDF><rdf:Description><dc:title>Avataaars</dc:title><dc:creator>Pablo Stanley</dc:creator><dc:source xsi:type="dcterms:URI">https://avataaars.com/</dc:source><dcterms:license xsi:type="dcterms:URI">https://avataaars.com/</dcterms:license><dc:rights>Remix of „Avataaars” (https://avataaars.com/) by „Pablo Stanley”, licensed under „Free for personal and commercial use” (https://avataaars.com/)</dc:rights></rdf:Description></rdf:RDF></metadata><mask id="viewboxMask"><rect width="280" height="280" rx="0" ry="0" x="0" y="0" fill="#fff" /></mask><g mask="url(#viewboxMask)"><g transform="translate(8)"><path d="M132 36a56 56 0 0 0-56 56v6.17A12 12 0 0 0 66 110v14a12 12 0 0 0 10.3 11.88 56.04 56.04 0 0 0 31.7 44.73v18.4h-4a72 72 0 0 0-72 72v9h200v-9a72 72 0 0 0-72-72h-4v-18.39a56.04 56.04 0 0 0 31.7-44.73A12 12 0 0 0 198 124v-14a12 12 0 0 0-10-11.83V92a56 56 0 0 0-56-56Z" fill="#d08b5b"/><path d="M108 180.61v8a55.79 55.79 0 0 0 24 5.39c8.59 0 16.73-1.93 24-5.39v-8a55.79 55.79 0 0 1-24 5.39 55.79 55.79 0 0 1-24-5.39Z" fill="#000" fill-opacity=".1"/><g transform="translate(0 170)"><path d="M132.5 54C151 54 166 44.37 166 32.5c0-1.1-.13-2.18-.38-3.23A72 72 0 0 1 232 101.05V110H32v-8.95A72 72 0 0 1 99.4 29.2a14.1 14.1 0 0 0-.4 3.3C99 44.37 114 54 132.5 54Z" fill="#a7ffc4"/><g transform="translate(77 58)"><path d="M63.78 29.74a320.2 320.2 0 0 1-7.34 7.82c1-3.56 1.74-7.58 3.2-10.96.43-.96.1-1.08.94-1.5.6-.3 2.07.05 2.8.07 1.56.04 3.15.19 4.7-.05-1.45 1.52-2.9 3.05-4.3 4.62ZM48.52 33.8c-2.7-3.28-5.39-6.57-8.66-9.32 1.29.14 2.7-.04 3.96.2 1.94.4 1.83 1 2.82 2.97a99.3 99.3 0 0 1 4.05 8.82c-.71-.9-1.45-1.79-2.17-2.67Zm-9.1-12.53c.96-1.58 1.14-2.98 2.92-3.78 2.06-.94 5.3-.74 7.49-.92-1.37 1.52-3.04 3.1-3.6 5.12a9.54 9.54 0 0 0-3.68-4.17c-.21-.1 1.16 4.55 1.34 4.87-1.72-.1-3.52-.4-5.22-.09l.75-1.03Zm16.4-5.01c1.6.03 3.17.16 4.74.42-1.26 1.67-1.64 3.63-2.1 5.63-.47-2.26-2.2-4.36-3.73-6.05h1.1Zm-3.5 1.07c.24-.16 4.46 5.09 5.07 5.56-3.31 0-6.62-.17-9.92-.32 1.9-1.48 3.02-3.68 4.86-5.24Zm2.7 17.1c-.4 1.35-.78 2.7-1.22 4.05-1.56-4.74-3.86-9.2-6.01-13.68 3.34.09 6.68.21 10.02.26-.82 3.16-1.87 6.24-2.8 9.37Zm7.22-17.46a36.24 36.24 0 0 1 3.87 4.44l1.26 1.65c-2.23-.23-4.54-.13-6.78-.15.5-2.06 1.1-4.01.58-6.13l1.07.19Zm7.65 5.61c-2.16-2.67-4.37-7.26-7.86-8.07-3.48-.8-7.55-.45-11.08-.22-3.07.2-8.08-.2-10.8 1.59-1.39.92-2.42 3-2.9 4.55-.44 1.4.27 2.28-1.25 2.28-.1 0 2.5 3.68 2.81 3.97a78.06 78.06 0 0 1 6.46 6.6c2.83 3.37 5.4 8.33 9.14 9.73-.68-.34 2.8-2.97 3.21-3.42 2.12-2.29 4.25-4.55 6.38-6.83 1.94-2.07 4.05-4.03 5.93-6.15 1.43-1.62 1.44-2.17-.04-4.02ZM36 14c.04.01-.9-2.05-.83-1.92a6.35 6.35 0 0 0-1.73-1.73C32.7 9.85 29.13 9.25 29 9c1.5 2.65 4.17 4.13 7 5ZM51.36 9.2c.17.65.43 1.25.79 1.8.07.08.86-4.18.85-4.55C52.99 5.83 52.6 2 51.8 2c-1.33 0-.67 6.47-.45 7.2ZM77.97 7c-3 0-9.68 5.85-8.9 9a3.35 3.35 0 0 0 .4-.33c1.27-1.02 2.72-2.02 4-3.2.9-.85 1.98-1.61 2.8-2.54.1-.1 2-2.93 1.7-2.93Z" fill-rule="evenodd" clip-rule="evenodd" fill="#fff"/></g></g><g transform="translate(78 134)"><path fill-rule="evenodd" clip-rule="evenodd" d="M29 15.6C30.41 25.24 41.06 33 54 33c12.97 0 23.65-7.82 25-18.26.1-.4-.22-1.74-2.17-1.74H31.17c-1.79 0-2.3 1.24-2.17 2.6Z" fill="#000" fill-opacity=".7"/><path d="M70 13H39a5 5 0 0 0 5 5h21a5 5 0 0 0 5-5Z" fill="#fff"/><path d="M43 23.5a1.88 1.88 0 0 0 0 .13v8.87a11.5 11.5 0 1 0 23 0v-8.87a1.62 1.62 0 0 0 0-.13c0-1.93-2.91-3.5-6.5-3.5-2.01 0-3.8.5-5 1.26a9.45 9.45 0 0 0-5-1.26c-3.59 0-6.5 1.57-6.5 3.5Z" fill="#FF4F6D"/></g><g transform="translate(104 122)"><path fill-rule="evenodd" clip-rule="evenodd" d="M16 8c0 4.42 5.37 8 12 8s12-3.58 12-8" fill="#000" fill-opacity=".16"/></g><g transform="translate(76 90)"><path d="M27 16c-4.84 0-9 2.65-10.84 6.45-.54 1.1.39 1.85 1.28 1.12a15.13 15.13 0 0 1 9.8-3.22 6 6 0 1 0 10.7 2.8 2 2 0 0 0-.12-.74l-.15-.38a6 6 0 0 0-1.64-2.48C33.9 17.32 30.5 16 27 16ZM85 16c-4.84 0-9 2.65-10.84 6.45-.54 1.1.39 1.85 1.28 1.12a15.13 15.13 0 0 1 9.8-3.22 6 6 0 1 0 10.7 2.8 2 2 0 0 0-.12-.74l-.15-.38a6 6 0 0 0-1.64-2.48C91.9 17.32 88.5 16 85 16Z" fill="#000" fill-opacity=".6"/></g><g transform="translate(76 82)"><path d="M26.55 6.15c-5.8.27-15.2 4.49-14.96 10.34.01.18.3.27.43.12 2.76-2.96 22.32-5.95 29.2-4.36.64.14 1.12-.48.72-.93-3.43-3.85-10.2-5.43-15.4-5.18ZM86.45 6.15c5.8.27 15.2 4.49 14.96 10.34-.01.18-.3.27-.43.12-2.76-2.96-22.32-5.95-29.2-4.36-.64.14-1.12-.48-.72-.93 3.43-3.85 10.2-5.43 15.4-5.18Z" fill-rule="evenodd" clip-rule="evenodd" fill="#000" fill-opacity=".6"/></g><g transform="translate(-1)"><path d="M44.83 105.6c-.39-1.61-.77-3.24-1.13-4.92-1.95-9.23-2.95-20.22 2.89-39.67-6.9 22.99-4.25 34.15-1.76 44.58 1.23 5.2 2.43 10.2 2.37 16.4a15.44 15.44 0 0 0 0 0c.06-6.2-1.14-11.21-2.37-16.4ZM218.38 114.23c-.13.4-.16.8-.18 1.23l.18-1.23ZM218.05 116.81c-.11 1.09-.2 2.2-.23 3.35-29.04-10.76-54.94-29.62-70.32-51.55-12.1 15.62-31.96 23.04-51.63 30.4-17.38 6.5-34.62 12.94-46.2 24.94l1.09-1.5c11-14.6 28.76-21.88 46.7-29.24 18.82-7.71 37.82-15.5 49.39-31.9 15.4 24.1 41.81 44.65 71.16 55.63l.04-.12Z" fill="#000" fill-opacity=".16"/><path d="M32 280h1v-9a72 72 0 0 1 72-72h4v-18.39a56.03 56.03 0 0 1-31.8-45.74A12 12 0 0 1 67 123v-13c0-.8.08-1.57.22-2.32 9.12-5.82 19.65-10.13 30.24-14.48 18.81-7.71 37.82-15.5 49.39-31.9C158.8 80 177.4 96.6 198.87 108.2c.08.59.13 1.19.13 1.8v13a12 12 0 0 1-10.2 11.87A56.03 56.03 0 0 1 157 180.6V199h4a72 72 0 0 1 72 72v9c24.41-13.94 15.86-33.21 6.28-48.46a303.17 303.17 0 0 0-4.07-6.27c-3.48-5.25-6.45-9.74-7.2-12.97-.1-.46-.17-.9-.18-1.3-.14-4.62 3.14-7.84 7.16-11.78 6.22-6.08 14.18-13.89 14.01-31.22-.51-15.83-9.8-22.25-18.1-28-6.93-4.78-13.17-9.1-13.1-18-.01-1.82.08-3.54.25-5.19.11-.4.13-.83.15-1.25v-.1c.45-3.44 1.2-6.62 1.98-9.87 2.55-10.72 5.3-22.23-2.38-46.59-2.9-9.12-6.97-16.5-12.1-22.46-14.12-16.42-36.35-22.04-64.9-23.29-2.55-.11-5.15-.19-7.8-.23V13h-1c-43.08.77-73.16 9.54-84.8 46-7.67 24.36-4.93 35.87-2.37 46.6 1.23 5.19 2.43 10.2 2.37 16.4.03 3.75-1.06 6.7-2.85 9.2-2.46 3.43-6.23 6.04-10.24 8.8-8.3 5.75-17.6 12.17-18.1 28-.17 17.33 7.8 25.14 14.01 31.22 4.03 3.94 7.32 7.16 7.17 11.78-.08 3.26-3.4 8.27-7.38 14.27-10.54 15.9-25.7 38.8 2.2 54.73Z" fill="#e8e1e1"/><path fill-rule="evenodd" clip-rule="evenodd" d="M50.58 122.45c22.54-29.92 73.49-29.13 96.09-61.15 15.4 24.1 41.82 44.65 71.16 55.63.3-.86.08-1.85.37-2.7 2.15-14.14 9.14-24.37-.58-55.23-11.63-36.46-41.71-45.23-84.8-45.98l-1-.02c-43.08.77-73.16 9.54-84.8 46-11.38 36.16.17 44 0 63 .04 3.75-1.05 6.7-2.85 9.2.19.4 4.16-5.76 6.41-8.75Z" fill="#fff" fill-opacity=".2"/></g><g transform="translate(49 72)"></g><g transform="translate(62 42)"><g fill-rule="evenodd" clip-rule="evenodd"><path d="M40 96a24 24 0 0 1-22.96-31H10.5a2.5 2.5 0 0 1 0-5h8c.23 0 .45.03.66.09a24 24 0 0 1 42.26 1.06A11.36 11.36 0 0 1 70.86 56c4.01 0 7.55 2.14 9.6 5.4a24 24 0 0 1 42.38-1.31c.2-.06.43-.1.66-.1h8a2.5 2.5 0 1 1 0 5h-6.54a24 24 0 1 1-46.6 2.83c-.08-4.37-3.45-7.83-7.5-7.83-3.73 0-6.89 2.94-7.42 6.83A24 24 0 0 1 40 96Zm0-4a20 20 0 1 0 0-40 20 20 0 0 0 0 40Zm82-20a20 20 0 1 1-40 0 20 20 0 0 1 40 0Z" fill="#000" fill-opacity=".1"/><path d="M40 94a24 24 0 0 1-22.96-31H10.5a2.5 2.5 0 0 1 0-5h8c.23 0 .45.03.66.09a24 24 0 0 1 42.26 1.06A11.36 11.36 0 0 1 70.86 54c4.01 0 7.55 2.14 9.6 5.4a24 24 0 0 1 42.38-1.31c.2-.06.43-.1.66-.1h8a2.5 2.5 0 1 1 0 5h-6.54a24 24 0 1 1-46.6 2.84c-.08-4.37-3.45-7.83-7.5-7.83-3.73 0-6.89 2.94-7.42 6.83A24 24 0 0 1 40 94Zm0-4a20 20 0 1 0 0-40 20 20 0 0 0 0 40Zm82-20a20 20 0 1 1-40 0 20 20 0 0 1 40 0Z" fill="#ffdeb5"/></g></g></g></g></svg>