<svg xmlns="http://www.w3.org/2000/svg" viewBox="0 0 280 280" fill="none" shape-rendering="auto"><metadata xmlns:rdf="http://www.w3.org/1999/02/22-rdf-syntax-ns#" xmlns:xsi="http://www.w3.org/2001/XMLSchema-instance" xmlns:dc="http://purl.org/dc/elements/1.1/" xmlns:dcterms="http://purl.org/dc/terms/"><rdf:RDF><rdf:Description><dc:title>Avataaars</dc:title><dc:creator>Pablo Stanley</dc:creator><dc:source xsi:type="dcterms:URI">https://avataaars.com/</dc:source><dcterms:license xsi:type="dcterms:URI">https://avataaars.com/</dcterms:license><dc:rights>Remix of „Avataaars” (https://avataaars.com/) by „Pablo Stanley”, licensed under „Free for personal and commercial use” (https://avataaars.com/)</dc:rights></rdf:Description></rdf:RDF></metadata><mask id="viewboxMask"><rect width="280" height="280" rx="0" ry="0" x="0" y="0" fill="#fff" /></mask><g mask="url(#viewboxMask)"><g transform="translate(8)"><path d="M132 36a56 56 0 0 0-56 56v6.17A12 12 0 0 0 66 110v14a12 12 0 0 0 10.3 11.88 56.04 56.04 0 0 0 31.7 44.73v18.4h-4a72 72 0 0 0-72 72v9h200v-9a72 72 0 0 0-72-72h-4v-18.39a56.04 56.04 0 0 0 31.7-44.73A12 12 0 0 0 198 124v-14a12 12 0 0 0-10-11.83V92a56 56 0 0 0-56-56Z" fill="#fd9841"/><path d="M108 180.61v8a55.79 55.79 0 0 0 24 5.39c8.59 0 16.73-1.93 24-5.39v-8a55.79 55.79 0 0 1-24 5.39 55.79 55.79 0 0 1-24-5.39Z" fill="#000" fill-opacity=".1"/><g transform="translate(0 170)"><path d="M92.68 29.94A72.02 72.02 0 0 0 32 101.05V110h200v-8.95a72.02 72.02 0 0 0-60.68-71.11 23.87 23.87 0 0 1-7.56 13.6l-29.08 26.23a4 4 0 0 1-5.36 0l-29.08-26.23a23.87 23.87 0 0 1-7.56-13.6Z" fill="#ffffb1"/></g><g transform="translate(78 134)"><path fill-rule="evenodd" clip-rule="evenodd" d="M35.12 29.87a19 19 0 0 1 37.77.09c.08.77-.77 2.04-1.85 2.04H37.1C36 32 35 30.82 35.12 29.87Z" fill="#000" fill-opacity=".7"/><path d="M69.59 32H38.4a11 11 0 0 1 15.6-6.8A11 11 0 0 1 69.59 32Z" fill="#FF4F6D"/><path d="M66.57 17.75A5 5 0 0 1 65 18H44c-.8 0-1.57-.2-2.24-.53A18.92 18.92 0 0 1 54 13c4.82 0 9.22 1.8 12.57 4.75Z" fill="#fff"/></g><g transform="translate(104 122)"><path fill-rule="evenodd" clip-rule="evenodd" d="M16 8c0 4.42 5.37 8 12 8s12-3.58 12-8" fill="#000" fill-opacity=".16"/></g><g transform="translate(76 90)"><path d="M16.16 27.55c1.85 3.8 6 6.45 10.84 6.45 4.81 0 8.96-2.63 10.82-6.4.55-1.13-.24-2.05-1.03-1.37a15.05 15.05 0 0 1-9.8 3.43c-3.73 0-7.12-1.24-9.55-3.23-.9-.73-1.82.01-1.28 1.12ZM74.16 27.55c1.85 3.8 6 6.45 10.84 6.45 4.81 0 8.96-2.63 10.82-6.4.55-1.13-.24-2.05-1.03-1.37a15.05 15.05 0 0 1-9.8 3.43c-3.74 0-7.13-1.24-9.56-3.23-.9-.73-1.82.01-1.28 1.12Z" fill-rule="evenodd" clip-rule="evenodd" fill="#000" fill-opacity=".6"/></g><g transform="translate(76 82)"><path d="m22.77 1.58.9-.4C28.93-.91 36.88-.03 41.73 2.3c.57.27.18 1.15-.4 1.1-14.92-1.14-24.96 8.15-28.37 14.45-.1.18-.41.2-.49.03-2.3-5.32 4.45-13.98 10.3-16.3ZM89.23 1.58l-.9-.4C83.07-.91 75.12-.03 70.27 2.3c-.57.27-.18 1.15.4 1.1 14.92-1.14 24.96 8.15 28.37 14.45.1.18.41.2.49.03 2.3-5.32-4.45-13.98-10.3-16.3Z" fill-rule="evenodd" clip-rule="evenodd" fill="#000" fill-opacity=".6"/></g><g transform="translate(-1)"><path d="M40 145c-.62-30.84 28.32-95.2 39-108 7.92-9.5 29.7-17.45 54-17 24.3.45 46.86 5.81 55 16 12.32 15.43 37.87 74.08 38 109 .1 24.8-9.54 49.66-23 51-7.6.76-17.26-.23-28.86-1.4-5.3-.55-11.02-1.13-17.14-1.6V180.6A56 56 0 0 0 189 130v-28.44a130.34 130.34 0 0 1-26.9-19.88c3.35 6.24 7.19 11.9 11.51 16.2-30.57-8.59-51.71-26.16-64.38-39.94C103.39 69.02 92.96 85.23 77 97.57V130a56 56 0 0 0 32 50.61v13.14c-6.95.95-13.41 2.16-19.36 3.27-10.85 2.02-19.98 3.73-27.26 2.98-14.22-1.47-21.88-30.2-22.38-55Z" fill="#ecdcbf"/></g><g transform="translate(49 72)"><path fill-rule="evenodd" clip-rule="evenodd" d="M101.43 98.17c-2.52 2.3-5.2 3.32-8.58 2.6-.58-.12-2.95-4.54-8.85-4.54-5.9 0-8.27 4.42-8.85 4.54-3.39.72-6.07-.3-8.58-2.6-4.72-4.31-8.65-10.26-6.3-16.75 1.24-3.38 3.24-7.1 6.88-8.17 3.89-1.15 9.35 0 13.26-.8A8.6 8.6 0 0 0 84 71a8.6 8.6 0 0 0 3.58 1.46c3.92.78 9.38-.36 13.27.79 3.64 1.07 5.64 4.79 6.87 8.17 2.36 6.49-1.57 12.44-6.3 16.75ZM140.08 26c-3.4 8.4-2.1 18.86-2.72 27.68-.52 7.16-2.02 17.9-8.39 22.53-3.25 2.37-9.18 6.35-13.43 5.24-2.93-.76-3.24-9.16-7.09-12.3a22.42 22.42 0 0 0-15.3-4.9c-2.37.11-7.17.09-9.15 1.91-1.98-1.82-6.78-1.8-9.15-1.9a22.42 22.42 0 0 0-15.3 4.89c-3.85 3.14-4.16 11.54-7.1 12.3-4.24 1.1-10.17-2.87-13.42-5.24-6.37-4.62-7.87-15.37-8.39-22.53-.63-8.82.69-19.28-2.72-27.68-1.66 0-.57 16.13-.57 16.13v20.36c.04 15.28 9.59 38.16 30.76 46.9C63.29 111.53 75 115 84 115c8.98.01 20.71-3.13 25.9-5.27 21.16-8.73 30.71-31.95 30.75-47.23V42.13s1.1-16.13-.57-16.13Z" fill="#c93305"/></g><g transform="translate(62 42)"></g></g></g></svg>