<svg xmlns="http://www.w3.org/2000/svg" viewBox="0 0 280 280" fill="none" shape-rendering="auto"><metadata xmlns:rdf="http://www.w3.org/1999/02/22-rdf-syntax-ns#" xmlns:xsi="http://www.w3.org/2001/XMLSchema-instance" xmlns:dc="http://purl.org/dc/elements/1.1/" xmlns:dcterms="http://purl.org/dc/terms/"><rdf:RDF><rdf:Description><dc:title>Avataaars</dc:title><dc:creator>Pablo Stanley</dc:creator><dc:source xsi:type="dcterms:URI">https://avataaars.com/</dc:source><dcterms:license xsi:type="dcterms:URI">https://avataaars.com/</dcterms:license><dc:rights>Remix of „Avataaars” (https://avataaars.com/) by „Pablo Stanley”, licensed under „Free for personal and commercial use” (https://avataaars.com/)</dc:rights></rdf:Description></rdf:RDF></metadata><mask id="viewboxMask"><rect width="280" height="280" rx="0" ry="0" x="0" y="0" fill="#fff" /></mask><g mask="url(#viewboxMask)"><g transform="translate(8)"><path d="M132 36a56 56 0 0 0-56 56v6.17A12 12 0 0 0 66 110v14a12 12 0 0 0 10.3 11.88 56.04 56.04 0 0 0 31.7 44.73v18.4h-4a72 72 0 0 0-72 72v9h200v-9a72 72 0 0 0-72-72h-4v-18.39a56.04 56.04 0 0 0 31.7-44.73A12 12 0 0 0 198 124v-14a12 12 0 0 0-10-11.83V92a56 56 0 0 0-56-56Z" fill="#ae5d29"/><path d="M108 180.61v8a55.79 55.79 0 0 0 24 5.39c8.59 0 16.73-1.93 24-5.39v-8a55.79 55.79 0 0 1-24 5.39 55.79 55.79 0 0 1-24-5.39Z" fill="#000" fill-opacity=".1"/><g transform="translate(0 170)"><path d="M132.5 54C151 54 166 44.37 166 32.5c0-1.1-.13-2.18-.38-3.23A72 72 0 0 1 232 101.05V110H32v-8.95A72 72 0 0 1 99.4 29.2a14.1 14.1 0 0 0-.4 3.3C99 44.37 114 54 132.5 54Z" fill="#65c9ff"/><g transform="translate(77 58)"><g fill="#fff"><path d="M63.84 17c-.29.65-.56 1.3-.82 1.95L63 19l2-.16A18.7 18.7 0 0 0 63.84 17ZM53.22 17.3c.2-.06.42-.13.7-.3.15.42.26 3.29-1.35 2.98-.92-.18-.5-1.77-.25-2.1.34-.41.59-.49.9-.58Z"/><path fill-rule="evenodd" clip-rule="evenodd" d="M74.64 16.95C73.46 11.68 70.6 7.97 66.18 5c-3.35-2.25-6.5-2.23-10.46-1.75-3.25.4-6.35 1.3-9.2 2.94-5.04 2.89-7.92 6.74-8.6 12.54-.28 2.33-.33 5.1.5 7.32.48 1.3 1.34 2.34 2.25 3.36.15.17.5.47.86.79.6.52 1.26 1.1 1.28 1.29.12.86-2.2 3.4-2.89 4.15-.05.06-.1.1-.12.14-.23.25-.73.6-1.3.99-1.02.7-2.25 1.55-2.43 2.2-.83 2.93 5.83 1.89 7.45 1.63 1.55-.24 3.11-.54 4.62-.98.7-.2 1.4-.44 2.07-.72.56-.23 1.17-.7 1.78-1.16.7-.52 1.38-1.03 1.97-1.2a5.9 5.9 0 0 1 2.1.02c.6.07 1.2.14 1.7.09 1.5-.15 3.03-.45 4.5-.87a19 19 0 0 0 7.05-3.84c4.42-3.76 6.6-9.24 5.33-15Zm-5.13 6.99c-.62.16-1.36-1.24-1.08-1.72.77-1.34 2.16 1.42 1.08 1.72Zm-2.22-9.38c-.27 1.1.12 2.95.4 4.05.07.36.42.47.73.43.55-.08.45-.56.36-.97-.03-.16-.06-.3-.06-.4.04-.75.11-2.64-.17-3.32-.51-1.26-.97-1.02-1.27.21Zm-.65 8.33c-.58.34-.86-.29-1.05-.74-.06-.13-.1-.24-.16-.32a1.39 1.39 0 0 1-.29-.72c-.01-.18-.02-.22-.58-.39-1.77-.52-1.8.7-1.84 1.94-.02.72-.04 1.45-.4 1.84-1.78 1.91-.58-3.68-.37-4.68l.03-.1.12-.7c.34-1.96 1.02-5.86 2.67-3.11.49.8 2.7 6.49 1.87 6.98Zm-10.37-.95c.6.6 3.7.22 4.02-.34.68-1.18-1.85-.85-2.78-.73l-.29.03c.04-.75.13-1.5.21-2.27.12-1.05.24-2.1.23-3.15v-.17c.02-.62.06-1.94-.96-1.21-.34.25-.33 1.19-.33 1.82v.46c-.02.23-.08.6-.15 1.02-.24 1.51-.61 3.87.04 4.54Zm-.77-2.78c-1.43 5.73-6.98 2.64-4.5-1.71.46-.8.83-.98 1.41-1.26.22-.1.46-.22.75-.4.05-.03.06-.14.06-.28 0-.27.02-.65.43-.64 1.76.03 2.18 2.93 1.85 4.28Zm-7 .83c-.04.87-.14 3.3.97 3 .76-.21.54-9.98-.33-9.98-.92 0-.75 1.78-.6 3.33.1 1 .19 1.91-.04 2.17-.1.12-.51.1-.84.06a2.1 2.1 0 0 0-.4 0c-1.15.2-1.9.08-2.25-.61-.1-.2-.1-.7-.1-1.29-.01-1.33-.02-2.96-1.15-1.5l.03 2.2c.34.72.21 1.16-.38 1.32-.02.3.16.58.28.77.07.1.12.19.12.24.02.14 0 .38-.01.66-.08 1.26-.2 3.54.92 3.4.71-.08.49-2.28.37-3.42l-.05-.6.91.03c.86.04 1.73.08 2.56-.03V20Z"/></g></g></g><g transform="translate(78 134)"><rect x="42" y="18" width="24" height="6" rx="3" fill="#000" fill-opacity=".7"/></g><g transform="translate(104 122)"><path fill-rule="evenodd" clip-rule="evenodd" d="M16 8c0 4.42 5.37 8 12 8s12-3.58 12-8" fill="#000" fill-opacity=".16"/></g><g transform="translate(76 90)"><g fill="#000" fill-opacity=".6"><path d="M36 22a6 6 0 1 1-12 0 6 6 0 0 1 12 0Z"/><path fill-rule="evenodd" clip-rule="evenodd" d="M70.6 24.96c1.59-3.92 5.55-6.86 10.37-7.2 4.8-.33 9.12 2 11.24 5.64.63 1.09-.1 2.06-.93 1.43-2.6-1.93-6.15-3-10-2.73A15.13 15.13 0 0 0 71.95 26c-.84.78-1.81.1-1.35-1.04Z"/></g></g><g transform="translate(76 82)"><path d="M44.1 17.12ZM19.27 5.01a7.16 7.16 0 0 0-6.42 2.43c-.6.73-1.56 2.48-1.51 3.42.02.35.22.37 1.12.59 1.65.39 4.5-1.12 6.36-.98 2.58.2 5.04 1.4 7.28 2.68 3.84 2.2 8.35 6.84 13.1 6.6.35-.02 5.41-1.74 4.4-2.72-.31-.49-3.03-1.13-3.5-1.36-2.17-1.09-4.37-2.45-6.44-3.72C29.14 9.18 24.72 5.6 19.28 5ZM68.03 17.12ZM92.91 5.01c2.36-.27 4.85.5 6.42 2.43.6.73 1.56 2.48 1.51 3.42-.02.35-.22.37-1.12.59-1.65.39-4.5-1.12-6.36-.98-2.58.2-5.04 1.4-7.28 2.68-3.84 2.2-8.35 6.84-13.1 6.6-.35-.02-5.41-1.74-4.4-2.72.31-.49 3.03-1.13 3.5-1.36 2.17-1.09 4.36-2.45 6.44-3.72C83.05 9.18 87.46 5.6 92.91 5Z" fill-rule="evenodd" clip-rule="evenodd" fill="#000" fill-opacity=".6"/></g><g transform="translate(-1)"><path d="M77 98.17v-.23l.08.06c1.7-27.45 17.84-33.2 32.51-38.41 10.53-3.75 20.3-7.22 23.4-18.25 3.12 11.03 12.89 14.5 23.42 18.25 14.67 5.22 30.82 10.96 32.5 38.41l.1-.06v.23a12 12 0 0 1 9.88 10.22 16.43 16.43 0 0 0 2.97-16.92 16.49 16.49 0 0 0-2.46-25.86 16.5 16.5 0 0 0-10.62-23.04 20.5 20.5 0 0 0-27.73-22.16A20.47 20.47 0 0 0 133 15.52a20.47 20.47 0 0 0-28.05 4.87 20.5 20.5 0 0 0-27.73 22.16A16.5 16.5 0 0 0 66.2 64.7a16.5 16.5 0 0 0-2.51 28.07 16.5 16.5 0 0 0 3.4 15.62A12 12 0 0 1 77 98.17ZM77.2 134.87c-3.85-.58-7.11-3-8.85-6.34a16.5 16.5 0 0 0 8.2 25.71 16.52 16.52 0 0 0 14.76 20.72A16.5 16.5 0 0 0 109 184.8v-4.2a56.03 56.03 0 0 1-31.8-45.74ZM157 180.61v4.2a16.5 16.5 0 0 0 17.69-9.85 16.5 16.5 0 0 0 14.76-20.71 16.5 16.5 0 0 0 8.2-25.72c-1.74 3.34-5 5.76-8.86 6.34A56.03 56.03 0 0 1 157 180.6Z" fill="#d6b370"/><path fill-rule="evenodd" clip-rule="evenodd" d="M170.12 28.36c-.4.12-.77.27-1.13.45-.17-.5-.38-1-.62-1.48 3.72-3.63 5.25-9.54 5.25-9.54s-1.16.2-3.1.64c-.27.04-3.78.6-8.24 2.31-.8-.58-1.54-1.04-2.1-1.38.52-2.93 1.68-12.56-4.46-16.11-6.1-3.54-13.8 2.2-16.12 4.14l-.7-.42c-3.07-1.77-10.77-5.35-16.05-.23-5.64 5.46-2.31 14-1.04 16.7l-.55.53a7.14 7.14 0 0 0-8.17-1.63l-2.13.93-1.38-1.88a7.24 7.24 0 0 0-8.29-2.54c-2.69.94-4.49 3.2-4.8 6.05l-.26 2.32-2.32.25a7.12 7.12 0 0 0-6.05 4.81 7.22 7.22 0 0 0 .83 6.53 4.2 4.2 0 0 0-2.74.06c.27-.4.48-.77.59-1.13a5.2 5.2 0 0 0-9.95-3.04c-.1.36-.15.8-.14 1.27-.3-.38-.59-.7-.9-.91a5.2 5.2 0 0 0-5.96 8.52c.3.21.7.38 1.16.53-.45.15-.84.34-1.14.56a5.17 5.17 0 0 0-1.02 7.29 5.16 5.16 0 0 0 7.28 1.02c.3-.22.58-.55.86-.93 0 .47.07.9.19 1.25a5.2 5.2 0 0 0 9.83-3.39 4.23 4.23 0 0 0-.62-1.1c.45.15.88.22 1.25.22a5.18 5.18 0 0 0 3.36-1.32 7.2 7.2 0 0 0 2.13 4.44 7.15 7.15 0 0 0 8.06 1.52l2.13-.93 1.38 1.88c.29.38.6.74.94 1.05-.52.51-1.06 1-1.64 1.44-.47-.3-1.12-.7-1.92-1.06a11.98 11.98 0 0 0-13.25 1.82C84.62 61.46 83 67.7 83 67.7s7.37 4.17 15.26.42c5.9-2.8 6.53-7.22 6.48-9.26.78-.64 1.54-1.33 2.26-2.07a7.27 7.27 0 0 0 5.72.36 7.12 7.12 0 0 0 4.8-6.05l.26-2.32 2.32-.26a7.11 7.11 0 0 0 5.3-3.24c2.57.32 4.97.13 6.2-.01.99 1.88 3.82 6.71 7.88 9.06a9.1 9.1 0 0 0 5.07 1.33c6.9-.36 9.92-10 10.67-12.92.64-.09 1.6-.24 2.71-.51a7.36 7.36 0 0 0 .15 8.25 7.4 7.4 0 0 0 5.93 3.16c.53 0 1.14-.1 1.78-.3-.4.55-.7 1.07-.88 1.58a7.4 7.4 0 0 0 13.65 5.65l.34.62c-.71 1.48-3.8 8.96 5.53 12.36 6.77 2.46 13.45-1.15 13.5-1.17 0 0-2.07-9.48-9.46-12.55a7.38 7.38 0 0 0 3.7-7.5 7.35 7.35 0 0 0-2.87-4.87 6.05 6.05 0 0 0-1.62-.8c.64-.21 1.21-.45 1.65-.76a7.4 7.4 0 0 0-8.5-12.12c-.43.3-.85.76-1.26 1.3 0-.68-.05-1.3-.2-1.81a7.35 7.35 0 0 0-3.6-4.37 7.36 7.36 0 0 0-5.65-.54Zm-4.08 10.84a8.2 8.2 0 0 0-.73-.22l.4-.3c.1.17.2.34.33.52Zm14.35 20.08.48.33c-.36.17-.67.35-.93.52-.33-.6-.6-1.15-.8-1.65.02-.17.03-.35.03-.53a6 6 0 0 0 1.22 1.33ZM92.2 42.12l-.12-.32.2.15-.08.17Z" fill="#000" fill-opacity=".2"/><path d="M179.03 58.94s-4.98 8.83 5.4 12.6c6.8 2.48 13.5-1.16 13.5-1.16s-2.16-9.9-9.97-12.75c-6.1-2.22-8.93 1.3-8.93 1.3Z" fill="#5DD362"/><path d="M197.93 70.38s-2.16-9.9-9.97-12.75c-4.07-1.48-6.7-.39-8.02.5-1.36-2.4-1.47-4.18-1.45-4.25.03-.3-.2-.53-.46-.63-.07-.02-.2-.07-.3-.03-.39.01-.67.37-.66.75 0 .23.35 4.54 4.63 8.83 6.05 6.6 16.23 7.58 16.23 7.58Z" fill="#42BC53"/><path fill-rule="evenodd" clip-rule="evenodd" d="M166.22 27c5.28-3.06 7.4-11.2 7.4-11.2s-7.38-4.18-15.26-.43c-7.89 3.74-6.37 10.37-6.37 10.37s6.61 5.65 14.23 1.25Z" fill="#5DD362"/><path fill-rule="evenodd" clip-rule="evenodd" d="M148 29.43c.05.08.1.17.24.2.42.34 1.09.3 1.42-.12a23.68 23.68 0 0 1 3.26-3.15c1.97 1.41 7.33 4.1 13.3.64 5.28-3.06 7.4-11.2 7.4-11.2s-1.16.2-3.1.63c-.54.07-14.38 2.3-22.36 11.87a.96.96 0 0 0-.16 1.13Z" fill="#42BC53"/><path fill-rule="evenodd" clip-rule="evenodd" d="M90.4 54.5C85.1 57.55 83 65.7 83 65.7s7.37 4.17 15.26.42c7.88-3.74 6.36-10.37 6.36-10.37s-6.6-5.65-14.23-1.25Z" fill="#5DD362"/><path fill-rule="evenodd" clip-rule="evenodd" d="M108.61 52.06c-.05-.08-.1-.17-.23-.2-.42-.34-1.1-.3-1.43.12a23.6 23.6 0 0 1-3.26 3.16c-1.97-1.41-7.32-4.1-13.3-.64-5.28 3.05-7.4 11.2-7.4 11.2s1.16-.2 3.1-.64c.54-.07 14.39-2.3 22.37-11.87.3-.3.35-.8.15-1.14Z" fill="#42BC53"/><path d="M68.58 49.96a5.17 5.17 0 0 1 1.02-7.29c.3-.22.7-.4 1.14-.56a4.26 4.26 0 0 1-1.16-.53 5.2 5.2 0 0 1 5.96-8.52c.31.21.6.53.9.91 0-.47.03-.9.14-1.27a5.16 5.16 0 0 1 6.5-3.45 5.2 5.2 0 0 1 3.45 6.5c-.11.35-.32.73-.59 1.12.45-.15.87-.24 1.25-.25a5.2 5.2 0 0 1 .18 10.4c-.37 0-.8-.07-1.25-.2.28.37.5.74.62 1.1a5.2 5.2 0 1 1-9.83 3.38 4.23 4.23 0 0 1-.2-1.25c-.27.38-.55.7-.85.93a5.17 5.17 0 0 1-7.28-1.02Z" fill="#4ACAD3"/><path fill-rule="evenodd" clip-rule="evenodd" d="M81.82 37.64a1.44 1.44 0 1 0-2.76-.84c-.23.76.23 4.18.23 4.18s2.3-2.58 2.53-3.34Zm2.24 5.8a1.44 1.44 0 1 0-.05-2.9c-.8.02-3.9 1.52-3.9 1.52s3.16 1.4 3.95 1.38Zm-6.05-2.02s-1.74-2.98-2.4-3.44a1.44 1.44 0 1 0-1.65 2.37c.65.45 4.05 1.07 4.05 1.07Zm3.07 6.84a1.44 1.44 0 0 0 .9-1.84c-.26-.75-2.65-3.25-2.65-3.25s-.35 3.44-.09 4.2a1.44 1.44 0 0 0 1.84.89Zm-5.32-1.96c.64-.48 2.27-3.52 2.27-3.52s-3.37.73-4 1.2a1.44 1.44 0 1 0 1.73 2.32Z" fill="#fff"/><path d="m117.53 49.1.25-2.32 2.32-.26a7.12 7.12 0 0 0 6.05-4.8 7.23 7.23 0 0 0-2.55-8.29l-1.87-1.38.93-2.13c1.23-2.8.65-5.9-1.52-8.06a7.14 7.14 0 0 0-8.06-1.52l-2.13.93-1.38-1.88a7.24 7.24 0 0 0-8.29-2.54c-2.69.94-4.49 3.2-4.8 6.05l-.26 2.32-2.32.25a7.12 7.12 0 0 0-6.05 4.81 7.2 7.2 0 0 0 1.67 7.53c.27.27.56.52.87.76l1.88 1.38-.93 2.13a7.15 7.15 0 0 0 1.52 8.06 7.15 7.15 0 0 0 8.06 1.52l2.13-.93 1.38 1.88a7.23 7.23 0 0 0 8.29 2.54 7.12 7.12 0 0 0 4.8-6.05Z" fill="#FDB599"/><path fill-rule="evenodd" clip-rule="evenodd" d="M109.88 41.2a1.44 1.44 0 1 1-2.78.74c-.2-.77-.1-5.94-.1-5.94s-2.5 4.53-3.06 5.1a1.44 1.44 0 0 1-2.03-2.05c.56-.56 5.1-3.05 5.1-3.05s-5.17.1-5.94-.1a1.44 1.44 0 0 1 .75-2.78c.77.2 5.19 2.88 5.19 2.88s-2.68-4.42-2.88-5.2a1.44 1.44 0 1 1 2.78-.74c.2.77.1 5.94.1 5.94s2.5-4.53 3.05-5.1a1.44 1.44 0 0 1 2.04 2.05c-.56.56-5.1 3.05-5.1 3.05s5.17-.1 5.94.1a1.44 1.44 0 1 1-.75 2.78C111.42 38.68 107 36 107 36s2.67 4.42 2.88 5.2Z" fill="#fff"/><path d="M190.76 55.82a7.36 7.36 0 0 0-1.46-10.36 6.06 6.06 0 0 0-1.62-.8c.64-.21 1.21-.45 1.65-.76a7.4 7.4 0 0 0-8.5-12.12c-.43.3-.85.75-1.26 1.3 0-.68-.05-1.3-.2-1.81a7.35 7.35 0 0 0-3.6-4.37 7.4 7.4 0 0 0-10.55 8.7c.15.5.44 1.04.82 1.6a6 6 0 0 0-1.77-.36 7.4 7.4 0 0 0-.26 14.8c.53 0 1.14-.1 1.78-.3-.4.55-.7 1.07-.88 1.58a7.4 7.4 0 0 0 14 4.81 6 6 0 0 0 .26-1.78c.4.55.8 1 1.22 1.33a7.35 7.35 0 0 0 5.49 1.42 7.35 7.35 0 0 0 4.88-2.88Z" fill="#F7D30C"/><path fill-rule="evenodd" clip-rule="evenodd" d="M171.9 38.3a2.05 2.05 0 1 1 3.94-1.2c.33 1.08-.33 5.94-.33 5.94s-3.27-3.66-3.6-4.74Zm-3.18 8.25a2.06 2.06 0 1 1 .07-4.11c1.13.02 5.56 2.15 5.56 2.15s-4.5 1.97-5.63 1.96Zm8.62-2.88s2.47-4.24 3.4-4.89a2.06 2.06 0 1 1 2.36 3.37c-.93.65-5.76 1.52-5.76 1.52Zm-4.38 9.73a2.06 2.06 0 0 1-1.27-2.6c.37-1.08 3.76-4.63 3.76-4.63s.5 4.89.13 5.96a2.06 2.06 0 0 1-2.62 1.27Zm7.57-2.79c-.9-.68-3.23-5-3.23-5s4.8 1.04 5.7 1.72a2.06 2.06 0 1 1-2.47 3.28Z" fill="#fff"/><path d="M169.14 31.55c1.82-6.99-6-12.42-8.95-14.19.5-2.93 1.67-12.56-4.47-16.11-6.1-3.54-13.8 2.2-16.12 4.14l-.7-.42c-3.07-1.77-10.77-5.35-16.05-.23-5.64 5.46-2.31 14-1.04 16.7-2.15 2-8.38 8.59-5.81 15.58a8.55 8.55 0 0 0 3.88 4.54c4.03 2.34 9.6 1.96 11.72 1.7 1 1.89 3.83 6.72 7.89 9.07a9.1 9.1 0 0 0 5.07 1.33c6.9-.36 9.92-10 10.67-12.92 2.86-.4 12.09-2.2 13.92-9.2Z" fill="#FF7398"/><path fill-rule="evenodd" clip-rule="evenodd" d="M142.76 25.6s3.69 8.2.36 8.71c-3.34.52-1.46-8.59-1.46-8.59s-7.11 6-8.15 3.03c-1.04-2.98 7.7-4.05 7.7-4.05s-7.98-4.7-5.38-6.83c2.59-2.15 6.21 6.09 6.21 6.09s1.94-8.92 4.82-7.26c2.88 1.67-3.86 7.82-3.86 7.82s8.88-1 8.37 2.35c-.5 3.34-8.6-1.27-8.6-1.27Z" fill="#fff"/><rect x="191" y="129" width="2" height="39" rx="1" fill="#E6E6E6"/><path d="M202 166h-9.43l6.43-17h-11l-6 21h8.64L186 189l16-23Z" fill="#9177FF"/></g><g transform="translate(49 72)"></g><g transform="translate(62 42)"></g></g></g></svg>