<svg xmlns="http://www.w3.org/2000/svg" viewBox="0 0 280 280" fill="none" shape-rendering="auto"><metadata xmlns:rdf="http://www.w3.org/1999/02/22-rdf-syntax-ns#" xmlns:xsi="http://www.w3.org/2001/XMLSchema-instance" xmlns:dc="http://purl.org/dc/elements/1.1/" xmlns:dcterms="http://purl.org/dc/terms/"><rdf:RDF><rdf:Description><dc:title>Avataaars</dc:title><dc:creator>Pablo Stanley</dc:creator><dc:source xsi:type="dcterms:URI">https://avataaars.com/</dc:source><dcterms:license xsi:type="dcterms:URI">https://avataaars.com/</dcterms:license><dc:rights>Remix of „Avataaars” (https://avataaars.com/) by „Pablo Stanley”, licensed under „Free for personal and commercial use” (https://avataaars.com/)</dc:rights></rdf:Description></rdf:RDF></metadata><mask id="viewboxMask"><rect width="280" height="280" rx="0" ry="0" x="0" y="0" fill="#fff" /></mask><g mask="url(#viewboxMask)"><g transform="translate(8)"><path d="M132 36a56 56 0 0 0-56 56v6.17A12 12 0 0 0 66 110v14a12 12 0 0 0 10.3 11.88 56.04 56.04 0 0 0 31.7 44.73v18.4h-4a72 72 0 0 0-72 72v9h200v-9a72 72 0 0 0-72-72h-4v-18.39a56.04 56.04 0 0 0 31.7-44.73A12 12 0 0 0 198 124v-14a12 12 0 0 0-10-11.83V92a56 56 0 0 0-56-56Z" fill="#fd9841"/><path d="M108 180.61v8a55.79 55.79 0 0 0 24 5.39c8.59 0 16.73-1.93 24-5.39v-8a55.79 55.79 0 0 1-24 5.39 55.79 55.79 0 0 1-24-5.39Z" fill="#000" fill-opacity=".1"/><g transform="translate(0 170)"><path d="M108 14.7c-15.52 3.68-27.1 10.83-30.77 19.44A72.02 72.02 0 0 0 32 101v9h200v-9a72.02 72.02 0 0 0-45.23-66.86C183.1 25.53 171.52 18.38 156 14.7V32a24 24 0 1 1-48 0V14.7Z" fill="#5199e4"/><path d="M102 63.34a67.1 67.1 0 0 1-7-2.82V110h7V63.34ZM162 63.34a67.04 67.04 0 0 0 7-2.82V98.5a3.5 3.5 0 1 1-7 0V63.34Z" fill="#F4F4F4"/><path d="M187.62 34.49a71.79 71.79 0 0 1 10.83 5.63C197.11 55.62 167.87 68 132 68c30.93 0 56-13.43 56-30 0-1.19-.13-2.36-.38-3.51ZM76.38 34.49a16.48 16.48 0 0 0-.38 3.5c0 16.58 25.07 30 56 30-35.87 0-65.1-12.38-66.45-27.88a71.79 71.79 0 0 1 10.83-5.63Z" fill="#000" fill-opacity=".16"/></g><g transform="translate(78 134)"><path fill-rule="evenodd" clip-rule="evenodd" d="M40.06 27.72C40.7 20.7 46.7 16 54 16c7.34 0 13.36 4.75 13.95 11.85.03.38-.87.67-1.32.45-5.54-2.77-9.75-4.16-12.63-4.16-2.84 0-7 1.36-12.45 4.07-.5.25-1.53-.07-1.5-.49Z" fill="#000" fill-opacity=".7"/></g><g transform="translate(104 122)"><path fill-rule="evenodd" clip-rule="evenodd" d="M16 8c0 4.42 5.37 8 12 8s12-3.58 12-8" fill="#000" fill-opacity=".16"/></g><g transform="translate(76 90)"><g fill="#000" fill-opacity=".6"><path d="M36 22a6 6 0 1 1-12 0 6 6 0 0 1 12 0Z"/><path fill-rule="evenodd" clip-rule="evenodd" d="M70.6 24.96c1.59-3.92 5.55-6.86 10.37-7.2 4.8-.33 9.12 2 11.24 5.64.63 1.09-.1 2.06-.93 1.43-2.6-1.93-6.15-3-10-2.73A15.13 15.13 0 0 0 71.95 26c-.84.78-1.81.1-1.35-1.04Z"/></g></g><g transform="translate(76 82)"><path d="M15.63 17.16c3.92-5.51 14.65-8.6 23.9-6.33a2 2 0 1 0 .95-3.88c-10.74-2.64-23.17.94-28.11 7.9a2 2 0 0 0 3.26 2.3ZM96.37 17.16c-3.91-5.51-14.65-8.6-23.9-6.33a2 2 0 1 1-.95-3.88c10.74-2.64 23.17.94 28.11 7.9a2 2 0 0 1-3.26 2.3Z" fill="#000" fill-opacity=".6"/></g><g transform="translate(-1)"><path d="M50 90.5c0 4.55 1.7 8.64 4.85 10.77.9.61 2.47.93 4.15 1.07V182a8 8 0 0 0 8 8h42v-9.39a56.03 56.03 0 0 1-31.8-45.74A12 12 0 0 1 67 123v-13c0-3.5 1.5-6.63 3.87-8.83 11.54-2.61 24.1-7.53 36.47-14.67 12.13-7 22.5-15.24 30.48-23.75a87.36 87.36 0 0 1-12.45 20.78c12.68-5.52 21.3-14.4 25.9-26.63.37.92.76 1.84 1.17 2.76 10.26 23.03 27.88 39.36 45.77 44.74.5 2.11.79 4.08.79 5.6v13a12 12 0 0 1-10.2 11.87A56.03 56.03 0 0 1 157 180.6V190h18a32 32 0 0 0 32-32v-54.12c0-.07 0-.17-.03-.28-.07-5.64-.28-18.87-.6-21.37A74.01 74.01 0 0 0 132.99 18c-36.08 0-66.14 25.83-73 60-5.52 0-10 5.6-10 12.5Z" fill="#c93305"/><path d="M152.44 59.66c11.94 26.81 33.86 44.53 54.56 46.5V92A74 74 0 0 0 60.32 78H60c-5.52 0-10 5.6-10 12.5 0 6.48 3.95 11.81 9 12.44v.15l.95-.1H60a8.1 8.1 0 0 0 1.9-.22C75.7 101 91.68 95.54 107.34 86.5c12.13-7 22.5-15.24 30.48-23.75a87.36 87.36 0 0 1-12.45 20.78c12.68-5.52 21.3-14.4 25.9-26.63.37.92.76 1.84 1.17 2.76Z" fill="#fff" fill-opacity=".08"/></g><g transform="translate(49 72)"></g><g transform="translate(62 42)"><g fill-rule="evenodd" clip-rule="evenodd"><path d="M38.5 52c-21.3 0-28.85 5.1-29.55 5.77A2.92 2.92 0 0 0 6 60.66v2.88c0 1.6 1.32 2.89 2.95 2.89 0 0 5.91 0 5.91 2.88 0 .44.07.65.19.68-.04.82-.05 1.66-.05 2.5C15 85.34 23.31 93 37.24 93H40c14.72 0 25-8.43 25-20.5 0-1.5-.04-3-.17-4.46l1.58-.77c.58-.29 1.21-.5 1.9-.64 1.85-.38 3.95-.22 5.99.28.73.18 1.26.35 1.5.45l1.38.55c-.14 1.5-.18 3.04-.18 4.6C77 85.34 85.31 93 99.24 93H102c14.72 0 25-8.43 25-20.5 0-1.54-.04-3.07-.18-4.56 1.74-1.51 6.22-1.51 6.22-1.51a2.92 2.92 0 0 0 2.96-2.89v-2.88c0-1.6-1.32-2.89-2.96-2.89-.69-.67-8.25-5.77-29.54-5.77H100.53c-1.8 0-3.44.07-4.97.2-9.54.54-14.68 2.15-19.92 4.7a17 17 0 0 1-4.56.87 17.01 17.01 0 0 1-4.81-.91l-.42-.2v-.01c-4.94-2.42-8.43-4.13-20.78-4.55a61.2 61.2 0 0 0-3.6-.1H38.5ZM19 73.5C19 64.84 19 58 38.39 58h3.22C61 58 61 64.84 61 73.5 61 82.63 52.36 89 40 89h-3.03C22.12 89 19 80.57 19 73.5Zm62 0c0-8.66 0-15.5 19.39-15.5h3.22C123 58 123 64.84 123 73.5c0 9.13-8.64 15.5-21 15.5h-3.03C84.12 89 81 80.57 81 73.5Z" fill="#000" fill-opacity=".1"/><path d="M38.5 50c-21.3 0-28.85 5.1-29.55 5.77A2.92 2.92 0 0 0 6 58.66v2.88c0 1.6 1.32 2.89 2.95 2.89 0 0 5.91 0 5.91 2.88 0 .44.07.65.19.68-.04.82-.05 1.66-.05 2.5C15 83.34 23.31 91 37.24 91H40c14.72 0 25-8.43 25-20.5 0-1.5-.04-3-.17-4.46l1.58-.77c.58-.29 1.21-.5 1.9-.64 1.85-.38 3.95-.22 5.99.28.73.18 1.26.35 1.5.45l1.38.55c-.14 1.5-.18 3.04-.18 4.6C77 83.34 85.31 91 99.24 91H102c14.72 0 25-8.43 25-20.5 0-1.54-.04-3.07-.18-4.56 1.74-1.51 6.22-1.51 6.22-1.51a2.92 2.92 0 0 0 2.96-2.89v-2.88c0-1.6-1.32-2.89-2.96-2.89-.69-.67-8.25-5.77-29.54-5.77H100.53c-1.8 0-3.44.07-4.97.2-9.54.54-14.68 2.15-19.92 4.7a17 17 0 0 1-4.56.87 17.01 17.01 0 0 1-4.81-.91l-.42-.2v-.01c-4.94-2.42-8.43-4.13-20.78-4.55a61.2 61.2 0 0 0-3.6-.1H38.5ZM19 71.5C19 62.84 19 56 38.39 56h3.22C61 56 61 62.84 61 71.5 61 80.63 52.36 87 40 87h-3.03C22.12 87 19 78.57 19 71.5Zm62 0c0-8.66 0-15.5 19.39-15.5h3.22C123 56 123 62.84 123 71.5c0 9.13-8.64 15.5-21 15.5h-3.03C84.12 87 81 78.57 81 71.5Z" fill="#ff488e"/></g></g></g></g></svg>