<svg xmlns="http://www.w3.org/2000/svg" viewBox="0 0 280 280" fill="none" shape-rendering="auto"><metadata xmlns:rdf="http://www.w3.org/1999/02/22-rdf-syntax-ns#" xmlns:xsi="http://www.w3.org/2001/XMLSchema-instance" xmlns:dc="http://purl.org/dc/elements/1.1/" xmlns:dcterms="http://purl.org/dc/terms/"><rdf:RDF><rdf:Description><dc:title>Avataaars</dc:title><dc:creator>Pablo Stanley</dc:creator><dc:source xsi:type="dcterms:URI">https://avataaars.com/</dc:source><dcterms:license xsi:type="dcterms:URI">https://avataaars.com/</dcterms:license><dc:rights>Remix of „Avataaars” (https://avataaars.com/) by „Pablo Stanley”, licensed under „Free for personal and commercial use” (https://avataaars.com/)</dc:rights></rdf:Description></rdf:RDF></metadata><mask id="viewboxMask"><rect width="280" height="280" rx="0" ry="0" x="0" y="0" fill="#fff" /></mask><g mask="url(#viewboxMask)"><g transform="translate(8)"><path d="M132 36a56 56 0 0 0-56 56v6.17A12 12 0 0 0 66 110v14a12 12 0 0 0 10.3 11.88 56.04 56.04 0 0 0 31.7 44.73v18.4h-4a72 72 0 0 0-72 72v9h200v-9a72 72 0 0 0-72-72h-4v-18.39a56.04 56.04 0 0 0 31.7-44.73A12 12 0 0 0 198 124v-14a12 12 0 0 0-10-11.83V92a56 56 0 0 0-56-56Z" fill="#d08b5b"/><path d="M108 180.61v8a55.79 55.79 0 0 0 24 5.39c8.59 0 16.73-1.93 24-5.39v-8a55.79 55.79 0 0 1-24 5.39 55.79 55.79 0 0 1-24-5.39Z" fill="#000" fill-opacity=".1"/><g transform="translate(0 170)"><path d="M132.5 54C151 54 166 44.37 166 32.5c0-1.1-.13-2.18-.38-3.23A72 72 0 0 1 232 101.05V110H32v-8.95A72 72 0 0 1 99.4 29.2a14.1 14.1 0 0 0-.4 3.3C99 44.37 114 54 132.5 54Z" fill="#ffffff"/><g transform="translate(77 58)"><path d="M63.78 29.74a320.2 320.2 0 0 1-7.34 7.82c1-3.56 1.74-7.58 3.2-10.96.43-.96.1-1.08.94-1.5.6-.3 2.07.05 2.8.07 1.56.04 3.15.19 4.7-.05-1.45 1.52-2.9 3.05-4.3 4.62ZM48.52 33.8c-2.7-3.28-5.39-6.57-8.66-9.32 1.29.14 2.7-.04 3.96.2 1.94.4 1.83 1 2.82 2.97a99.3 99.3 0 0 1 4.05 8.82c-.71-.9-1.45-1.79-2.17-2.67Zm-9.1-12.53c.96-1.58 1.14-2.98 2.92-3.78 2.06-.94 5.3-.74 7.49-.92-1.37 1.52-3.04 3.1-3.6 5.12a9.54 9.54 0 0 0-3.68-4.17c-.21-.1 1.16 4.55 1.34 4.87-1.72-.1-3.52-.4-5.22-.09l.75-1.03Zm16.4-5.01c1.6.03 3.17.16 4.74.42-1.26 1.67-1.64 3.63-2.1 5.63-.47-2.26-2.2-4.36-3.73-6.05h1.1Zm-3.5 1.07c.24-.16 4.46 5.09 5.07 5.56-3.31 0-6.62-.17-9.92-.32 1.9-1.48 3.02-3.68 4.86-5.24Zm2.7 17.1c-.4 1.35-.78 2.7-1.22 4.05-1.56-4.74-3.86-9.2-6.01-13.68 3.34.09 6.68.21 10.02.26-.82 3.16-1.87 6.24-2.8 9.37Zm7.22-17.46a36.24 36.24 0 0 1 3.87 4.44l1.26 1.65c-2.23-.23-4.54-.13-6.78-.15.5-2.06 1.1-4.01.58-6.13l1.07.19Zm7.65 5.61c-2.16-2.67-4.37-7.26-7.86-8.07-3.48-.8-7.55-.45-11.08-.22-3.07.2-8.08-.2-10.8 1.59-1.39.92-2.42 3-2.9 4.55-.44 1.4.27 2.28-1.25 2.28-.1 0 2.5 3.68 2.81 3.97a78.06 78.06 0 0 1 6.46 6.6c2.83 3.37 5.4 8.33 9.14 9.73-.68-.34 2.8-2.97 3.21-3.42 2.12-2.29 4.25-4.55 6.38-6.83 1.94-2.07 4.05-4.03 5.93-6.15 1.43-1.62 1.44-2.17-.04-4.02ZM36 14c.04.01-.9-2.05-.83-1.92a6.35 6.35 0 0 0-1.73-1.73C32.7 9.85 29.13 9.25 29 9c1.5 2.65 4.17 4.13 7 5ZM51.36 9.2c.17.65.43 1.25.79 1.8.07.08.86-4.18.85-4.55C52.99 5.83 52.6 2 51.8 2c-1.33 0-.67 6.47-.45 7.2ZM77.97 7c-3 0-9.68 5.85-8.9 9a3.35 3.35 0 0 0 .4-.33c1.27-1.02 2.72-2.02 4-3.2.9-.85 1.98-1.61 2.8-2.54.1-.1 2-2.93 1.7-2.93Z" fill-rule="evenodd" clip-rule="evenodd" fill="#fff"/></g></g><g transform="translate(78 134)"><rect x="42" y="18" width="24" height="6" rx="3" fill="#000" fill-opacity=".7"/></g><g transform="translate(104 122)"><path fill-rule="evenodd" clip-rule="evenodd" d="M16 8c0 4.42 5.37 8 12 8s12-3.58 12-8" fill="#000" fill-opacity=".16"/></g><g transform="translate(76 90)"><path d="M25 27s-6 7.27-6 11.27a6 6 0 1 0 12 0c0-4-6-11.27-6-11.27Z" fill="#92D9FF"/><path d="M36 22a6 6 0 1 1-12 0 6 6 0 0 1 12 0ZM88 22a6 6 0 1 1-12 0 6 6 0 0 1 12 0Z" fill="#000" fill-opacity=".6"/></g><g transform="translate(76 82)"><path d="m31.23 20.42-.9.4c-5.25 2.09-13.2 1.21-18.05-1.12-.57-.27-.18-1.15.4-1.1 14.92 1.14 24.96-8.15 28.37-14.45.1-.18.41-.2.49-.03 2.3 5.32-4.45 13.98-10.3 16.3ZM80.77 20.42l.9.4c5.25 2.09 13.2 1.21 18.05-1.12.57-.27.18-1.15-.4-1.1-14.92 1.14-24.96-8.15-28.37-14.45-.1-.18-.41-.2-.49-.03-2.3 5.32 4.45 13.98 10.3 16.3Z" fill-rule="evenodd" clip-rule="evenodd" fill="#000" fill-opacity=".6"/></g><g transform="translate(-1)"><path d="M177.75 37.86c9.52 7.1 17.76 18.58 18.16 30.82.17 5.5-.62 11.23-1.73 16.62-.5 2.46-1.6 4.66-2.7 6.85-1.07 2.12-2.13 4.24-2.64 6.58-2.63-8.93-10.09-13.97-17.5-19-3.96-2.66-7.9-5.33-11.1-8.58 1.02 1.93 2.3 3.7 3.6 5.46 1.23 1.7 2.47 3.4 3.45 5.22-9.24-5.66-18.2-13.88-22.03-24.3a29.46 29.46 0 0 1-6.1 14.67c-3.02 3.8-7.59 7.87-12.3 9.34 2.43-5.5 4.5-11.21 6.4-16.92-1.78 2.31-7.21 11.29-9.6 15.23l-.77 1.26a73.9 73.9 0 0 1-10.47 13.35c-.5.53-1.42 1.52-.67.54-1.85 2.35-4.45 4.26-6.9 6.07l-1.4 1.04a51.67 51.67 0 0 1-9.2 5.48c-7.1 3.31-14.38 4.54-22.11 3.2.9.1 2.35-.4 3.53-.82a20 20 0 0 1 1.22-.4c1.8-.5 3.47-1.12 5.11-2.02a53.85 53.85 0 0 0 9.18-6.42c-1.37.58-2.6 1.42-3.84 2.27-1.23.83-2.46 1.67-3.83 2.27-2.28 1-4.54 1.53-7.03 1.77-5.46.53-12-.72-16.72-3.6-5.5-3.32-8.54-9.04-9.99-15.13-1.68-7.06-.63-15.04 3.33-21.07.13 2.14 4.43 3.06 7.92 2.53 3.77-.59 6.95-6.52 10.9-13.93 6.19-11.55 14.28-26.67 29.52-30.64 19.96-5.2 34.21 3.87 35.42 4.66 1.22.78 1.8.63 2.93.32l.68-.17c6.35-1.52 13.26-2.2 19.7-.92 6.35 1.26 12.43 4.54 17.57 8.38ZM71.93 110.75l.2.04a1.6 1.6 0 0 1-.2-.04ZM79 156.2c.8-1.53 1.57-3.06 2.32-4.6A56.2 56.2 0 0 0 109 180.6v9.01a54.4 54.4 0 0 1-7.73 1.97c-9 1.62-34.32-3.53-45.44-11.98-.85-.65-.42-1.92.67-2 11.66-.8 17.63-12.13 22.4-21.2l.1-.2ZM157 183.05v-2.44c6.95-3.3 13.11-8 18.13-13.71.71 2.24 1.75 4.33 3.43 5.79 1.32 1.14 3.48 1.12 5.34 1.1l1.2.01c1.67.05 3.34.06 5.02-.02.83-.03 1.2 1.02.53 1.5a39.2 39.2 0 0 1-3.64 2.07 29.3 29.3 0 0 1-7.98 2.74c-1.92.34-3.82.4-5.66.18a9.84 9.84 0 0 0 1.7 1.94c1.41 1.22 3.72 1.2 5.7 1.19h1.28c1.79.05 3.58.06 5.36-.02.9-.04 1.3 1.09.57 1.6a41.97 41.97 0 0 1-3.88 2.22 31.24 31.24 0 0 1-8.53 2.92c-5.5.97-10.86-.18-15.19-3.7a24.9 24.9 0 0 1-3.38-3.37Z" fill="#f59797"/><path d="M81.32 151.6c-.75 1.54-1.51 3.07-2.31 4.6l-.1.18c-4.77 9.08-10.74 20.42-22.4 21.22-1.09.07-1.52 1.34-.67 1.99 11.12 8.45 36.43 13.6 45.44 11.98a54.4 54.4 0 0 0 7.73-1.96v-8.99a56.2 56.2 0 0 1-27.68-29ZM157 180.61v2.44a24.9 24.9 0 0 0 3.38 3.36c4.33 3.53 9.7 4.68 15.2 3.71a31.24 31.24 0 0 0 8.51-2.92 41.97 41.97 0 0 0 3.89-2.22c.72-.51.32-1.64-.57-1.6-1.78.08-3.57.07-5.35.02h-1.29c-1.98.01-4.29.03-5.7-1.2a9.84 9.84 0 0 1-1.7-1.93c1.84.22 3.74.16 5.66-.18a29.3 29.3 0 0 0 7.98-2.73 39.2 39.2 0 0 0 3.64-2.08c.68-.48.3-1.53-.53-1.5a69.9 69.9 0 0 1-5.02.02h-1.2c-1.86.01-4.02.03-5.34-1.11-1.69-1.46-2.72-3.55-3.43-5.8A56.18 56.18 0 0 1 157 180.62Z" fill="#000" fill-opacity=".16"/></g><g transform="translate(49 72)"></g><g transform="translate(62 42)"></g></g></g></svg>